<?xml version="1.0" encoding="iso-8859-1"?>
<!-- Uploaded to: SVG Repo, www.svgrepo.com, Generator: SVG Repo Mixer Tools -->
<svg version="1.1" id="Layer_1" xmlns="http://www.w3.org/2000/svg" xmlns:xlink="http://www.w3.org/1999/xlink" 
	 viewBox="0 0 512 512" xml:space="preserve">
<rect x="93.909" y="84.411" style="fill:#875B51;" width="38.746" height="116.426"/>
<polygon style="fill:#AAC36D;" points="447.615,241.011 476.021,241.011 417.393,139.158 440.043,129.157 368.086,4.151 
	334.875,207.8 368.086,352.865 512,352.865 "/>
<polygon style="fill:#CAED73;" points="368.086,352.865 224.173,352.865 288.557,241.011 260.151,241.011 324.536,129.157 
	296.129,129.157 368.086,4.151 "/>
<polygon style="fill:#FFD686;" points="199.265,84.411 30.443,253.232 63.654,297.513 334.875,297.513 368.086,253.232 "/>
<polygon style="fill:#FFE0A2;" points="334.875,253.232 199.265,297.513 63.654,253.232 199.265,117.621 "/>
<polygon style="fill:#FE9528;" points="368.086,386.076 368.086,419.286 334.875,419.286 312.735,363.935 "/>
<polygon style="fill:#FFA850;" points="368.086,352.865 368.086,386.076 334.875,386.076 312.735,330.724 "/>
<polygon style="fill:#FE9528;" points="368.086,319.654 368.086,352.865 334.875,352.865 312.735,297.513 "/>
<polygon style="fill:#FFA850;" points="368.086,286.443 368.086,319.654 334.875,319.654 312.735,264.303 "/>
<polygon style="fill:#FE9528;" points="368.086,253.232 368.086,286.443 334.875,286.443 312.735,269.838 334.875,253.232 "/>
<polygon style="fill:#FFA850;" points="334.875,386.076 334.875,419.286 251.848,419.286 229.708,363.935 "/>
<polygon style="fill:#FEC14D;" points="334.875,352.865 334.875,386.076 251.848,386.076 229.708,330.724 "/>
<polygon style="fill:#FFA850;" points="334.875,319.654 334.875,352.865 251.848,352.865 229.708,297.513 "/>
<polygon style="fill:#FEC14D;" points="334.875,286.443 334.875,319.654 251.848,319.654 229.708,264.303 "/>
<g>
	<rect x="251.848" y="253.232" style="fill:#FFA850;" width="83.027" height="33.211"/>
	<polygon style="fill:#FFA850;" points="30.443,386.076 30.443,419.286 146.681,419.286 168.821,363.935 	"/>
</g>
<polygon style="fill:#FEC14D;" points="30.443,352.865 30.443,386.076 146.681,386.076 168.821,330.724 "/>
<polygon style="fill:#FFA850;" points="30.443,319.654 30.443,352.865 146.681,352.865 168.821,297.513 "/>
<polygon style="fill:#FEC14D;" points="30.443,286.443 30.443,319.654 146.681,319.654 168.821,264.303 "/>
<rect x="30.443" y="253.232" style="fill:#FFA850;" width="116.238" height="33.211"/>
<polygon style="fill:#705147;" points="251.848,253.232 251.848,419.286 229.708,419.286 196.497,330.724 229.708,253.232 "/>
<rect x="146.681" y="253.232" style="fill:#875B51;" width="83.027" height="166.054"/>
<polygon style="fill:#AAC36D;" points="478.789,419.286 445.578,463.567 478.789,507.849 512,507.849 512,419.286 "/>
<rect x="8.302" y="419.286" style="fill:#CAED73;" width="470.487" height="88.562"/>
<g>
	<path style="fill:#AAC36D;" d="M41.513,466.335c-4.585,0-8.303-3.717-8.303-8.303v-11.07c0-4.585,3.717-8.303,8.303-8.303
		s8.303,3.717,8.303,8.303v11.07C49.816,462.618,46.099,466.335,41.513,466.335z"/>
	<path style="fill:#AAC36D;" d="M74.724,488.476c-4.585,0-8.303-3.717-8.303-8.303v-11.07c0-4.585,3.717-8.303,8.303-8.303
		s8.303,3.717,8.303,8.303v11.07C83.027,484.758,79.309,488.476,74.724,488.476z"/>
</g>
<g>
	<path style="fill:#95AC66;" d="M107.935,477.405c-4.585,0-8.303-3.717-8.303-8.303v-11.07c0-4.585,3.717-8.303,8.303-8.303
		s8.303,3.717,8.303,8.303v11.07C116.238,473.688,112.52,477.405,107.935,477.405z"/>
	<path style="fill:#95AC66;" d="M448.346,466.335c-4.585,0-8.303-3.717-8.303-8.303v-11.07c0-4.585,3.717-8.303,8.303-8.303
		s8.303,3.717,8.303,8.303v11.07C456.648,462.618,452.931,466.335,448.346,466.335z"/>
</g>
<g>
	<path style="fill:#AAC36D;" d="M323.805,488.476c-4.585,0-8.303-3.717-8.303-8.303v-11.07c0-4.585,3.717-8.303,8.303-8.303
		c4.585,0,8.303,3.717,8.303,8.303v11.07C332.108,484.758,328.39,488.476,323.805,488.476z"/>
	<path style="fill:#AAC36D;" d="M357.016,488.476c-4.585,0-8.303-3.717-8.303-8.303v-11.07c0-4.585,3.717-8.303,8.303-8.303
		c4.585,0,8.303,3.717,8.303,8.303v11.07C365.319,484.758,361.601,488.476,357.016,488.476z"/>
	<path style="fill:#AAC36D;" d="M202.032,488.476c-4.585,0-8.303-3.717-8.303-8.303v-11.07c0-4.585,3.717-8.303,8.303-8.303
		c4.585,0,8.303,3.717,8.303,8.303v11.07C210.335,484.758,206.617,488.476,202.032,488.476z"/>
</g>
<path style="fill:#705147;" d="M390.227,283.676c-2.124,0-4.25-0.81-5.871-2.432L199.265,96.153L14.173,281.243
	c-3.242,3.242-8.5,3.242-11.741,0c-3.242-3.242-3.242-8.5,0-11.741L193.394,78.54c3.242-3.242,8.5-3.242,11.741,0l190.962,190.962
	c3.242,3.242,3.242,8.5,0,11.741C394.477,282.865,392.352,283.676,390.227,283.676z"/>
</svg>